<?xml version="1.0" standalone="no"?>
<!DOCTYPE svg PUBLIC "-//W3C//DTD SVG 20010904//EN"
 "http://www.w3.org/TR/2001/REC-SVG-20010904/DTD/svg10.dtd">
<svg version="1.0" xmlns="http://www.w3.org/2000/svg"
 width="330.000000pt" height="330.000000pt" viewBox="0 0 330.000000 330.000000"
 preserveAspectRatio="xMidYMid meet">
<metadata>
Created by potrace 1.14, written by Peter Selinger 2001-2017
</metadata>
<g transform="translate(0.000000,330.000000) scale(0.100000,-0.100000)"
fill="#000000" stroke="none">
<path d="M915 2565 c-87 -25 -94 -29 -105 -56 -25 -60 43 -101 158 -95 161 7
163 130 2 149 -25 3 -49 4 -55 2z"/>
<path d="M1378 2453 c-10 -2 -19 -8 -19 -11 -8 -41 -3 -57 30 -91 55 -58 122
-79 157 -50 57 47 -83 173 -168 152z"/>
<path d="M455 2433 c-98 -52 -126 -160 -39 -149 90 11 181 106 144 151 -16 19
-67 18 -105 -2z"/>
<path d="M677 2390 c-49 -9 -114 -55 -149 -105 -21 -32 -26 -50 -24 -86 3 -52
16 -70 61 -86 59 -20 150 9 202 65 27 30 62 99 59 116 -18 84 -62 112 -149 96z"/>
<path d="M1155 2390 c-87 -34 -77 -153 20 -232 142 -116 303 -17 213 130 -46
75 -167 128 -233 102z"/>
<path d="M270 2253 c-45 -16 -100 -99 -100 -151 0 -62 56 -67 111 -9 78 81 71
188 -11 160z"/>
<path d="M1606 2241 c-10 -11 -14 -28 -11 -46 8 -46 38 -105 54 -105 8 0 11
-3 8 -7 -4 -4 9 -14 30 -24 64 -29 92 8 63 85 -4 11 -8 25 -8 29 -1 16 -74 75
-98 80 -14 2 -29 -2 -38 -12z"/>
<path d="M898 2196 c-21 -8 -38 -12 -38 -10 0 3 -15 -10 -34 -27 -93 -84 -98
-218 -12 -304 53 -52 102 -69 171 -60 174 21 242 240 112 359 -55 49 -134 66
-199 42z"/>
<path d="M350 2101 c-41 -22 -81 -65 -106 -113 -21 -39 -23 -131 -3 -154 33
-41 92 -48 148 -19 25 13 83 63 89 78 2 3 10 23 18 42 27 65 14 154 -24 170
-37 16 -88 14 -122 -4z"/>
<path d="M1453 2093 c-103 -83 9 -303 155 -303 43 0 79 26 86 63 11 54 13 77
5 77 -5 0 -9 9 -9 20 0 37 -46 97 -105 136 -39 27 -103 30 -132 7z"/>
<path d="M552 1856 c-111 -38 -168 -167 -123 -280 14 -36 22 -27 44 44 17 56
80 137 124 159 12 6 56 11 98 11 88 0 94 11 26 49 -48 26 -120 34 -169 17z"/>
<path d="M1328 1865 c-2 -1 -24 -5 -50 -8 -43 -5 -118 -43 -118 -59 0 -5 66
-8 146 -8 149 0 167 6 114 35 -40 22 -89 43 -92 40z"/>
<path d="M97 1802 c-46 -50 -55 -161 -20 -229 17 -32 25 -38 53 -38 43 0 68
33 76 103 8 67 -11 136 -44 162 -31 25 -44 25 -65 2z"/>
<path d="M1246 1706 c-83 -24 -115 -106 -62 -159 21 -21 131 -61 153 -55 15 4
51 -13 56 -26 3 -8 0 -22 -7 -31 -13 -18 -72 -23 -126 -12 -53 12 -66 15 -82
22 -16 6 -18 1 -18 -36 0 -23 3 -39 7 -36 3 4 12 2 20 -5 7 -6 16 -8 19 -5 3
3 18 1 33 -4 14 -6 52 -10 83 -10 114 0 174 34 182 102 8 72 -40 110 -156 123
-70 8 -96 27 -78 55 12 20 89 24 157 8 59 -13 62 -13 53 4 -7 12 -6 20 1 24
22 14 -20 41 -68 44 -110 7 -132 7 -167 -3z"/>
<path d="M658 1703 c-4 -7 -3 -309 1 -338 1 -11 189 -12 255 -1 103 17 168 83
168 170 0 78 -42 128 -132 158 -49 16 -285 25 -292 11z m227 -71 c38 -13 68
-41 72 -69 8 -57 6 -69 -23 -99 -25 -26 -51 -35 -110 -39 l-44 -2 0 108 0 109
43 -1 c23 -1 51 -4 62 -7z"/>
<path d="M1564 1698 c2 -7 11 -31 21 -53 10 -22 18 -43 17 -47 -1 -5 3 -8 9
-8 5 0 7 -4 4 -10 -3 -5 -1 -10 5 -10 6 0 8 -4 5 -10 -3 -5 -1 -10 6 -10 7 0
10 -3 6 -6 -3 -3 6 -27 20 -52 15 -26 26 -47 25 -47 -2 0 5 -19 14 -42 10 -25
24 -43 33 -44 78 -5 99 -5 117 2 18 6 35 35 43 74 1 6 10 18 19 29 9 10 16 21
15 25 -1 5 26 67 78 175 11 22 19 41 19 43 0 2 -24 3 -54 3 -46 0 -56 -4 -70
-24 -8 -14 -17 -31 -18 -38 -2 -7 -5 -15 -8 -18 -3 -3 -16 -32 -30 -65 -13
-33 -30 -66 -36 -73 -7 -7 -11 -19 -8 -27 4 -8 3 -15 0 -15 -5 0 -67 123 -71
140 0 3 -6 15 -13 28 -7 12 -9 22 -5 22 4 0 3 4 -2 8 -6 4 -16 19 -22 35 -12
25 -17 27 -67 27 -38 0 -53 -4 -52 -12z"/>
<path d="M2075 1620 c-27 -4 -31 -9 -30 -35 0 -22 4 -29 15 -26 8 2 44 5 80 8
48 4 70 1 85 -10 11 -9 18 -18 15 -21 -3 -3 -37 -7 -76 -10 -87 -7 -118 -18
-139 -50 -26 -39 -5 -93 43 -113 46 -19 125 -13 152 12 18 16 20 16 20 2 0
-10 3 -17 8 -18 89 -11 106 -4 100 40 -2 17 -2 31 1 31 8 0 -3 120 -13 142
-19 42 -154 67 -261 48z m163 -158 c2 -7 -4 -22 -14 -33 -33 -37 -123 -17 -98
23 16 25 104 33 112 10z"/>
<path d="M2458 1619 c-14 -9 -17 -248 -3 -258 13 -8 77 -7 92 2 7 4 10 24 8
47 -2 22 1 40 6 40 6 0 7 6 2 13 -11 17 -11 30 0 45 5 6 6 12 2 12 -5 0 0 9
10 20 19 21 60 26 84 11 10 -7 14 -33 15 -95 1 -46 5 -88 9 -92 8 -8 96 -12
98 -4 6 26 3 190 -4 190 -4 0 -6 4 -3 8 10 17 -25 52 -62 61 -48 12 -95 8
-127 -13 -27 -18 -39 -21 -30 -7 3 5 0 13 -6 16 -15 10 -78 12 -91 4z"/>
<path d="M285 1520 c-70 -28 -81 -121 -24 -214 67 -112 206 -139 240 -47 7 16
6 27 -1 31 -6 4 -13 13 -14 21 -2 8 -9 28 -16 44 -7 17 -14 48 -17 70 -4 32
-13 46 -42 67 -40 28 -94 41 -126 28z"/>
<path d="M659 1291 c0 -3 -2 -14 -4 -23 -2 -10 0 -19 3 -19 26 -5 2512 -3
2512 2 0 3 -10 14 -23 26 -23 19 -35 20 -1255 20 -678 0 -1232 -3 -1233 -6z"/>
<path d="M180 1261 c-18 -13 -17 -69 4 -109 35 -68 100 -108 131 -82 61 51
-68 234 -135 191z"/>
<path d="M533 1172 c-20 -21 -24 -35 -21 -67 3 -22 6 -47 9 -55 8 -29 73 -90
117 -112 51 -24 129 -28 143 -7 5 8 9 10 9 5 0 -5 9 1 20 14 67 77 -36 239
-150 235 -25 -1 -58 2 -73 6 -24 7 -33 4 -54 -19z"/>
<path d="M810 1179 c0 -27 104 -77 155 -73 58 4 85 8 85 14 0 3 16 14 35 24
62 34 39 41 -123 41 -84 0 -152 -2 -152 -6z"/>
<path d="M1190 1162 c-56 -37 -97 -119 -84 -169 39 -153 313 -49 317 119 1 59
-19 73 -113 75 -70 1 -84 -2 -120 -25z"/>
<path d="M1609 1174 c-6 -8 -15 -32 -19 -54 -6 -32 -4 -43 12 -57 11 -10 22
-17 24 -16 2 2 17 9 34 18 31 16 74 67 84 100 5 18 1 20 -59 22 -45 1 -68 -3
-76 -13z"/>
<path d="M376 1009 c-17 -26 -11 -50 23 -88 30 -34 106 -69 135 -63 33 7 46
28 36 60 -1 4 -2 9 -2 12 0 3 -17 22 -39 44 -21 21 -39 35 -39 31 0 -4 -6 -3
-13 3 -7 6 -30 13 -50 16 -29 3 -40 0 -51 -15z"/>
<path d="M1445 1012 c-31 -18 -39 -25 -68 -58 -35 -42 -25 -83 22 -91 45 -8
157 66 162 107 1 6 2 16 3 23 4 36 -69 48 -119 19z"/>
<path d="M941 898 c-60 -9 -111 -40 -111 -67 0 -31 47 -68 98 -78 60 -11 143
2 171 28 66 62 -33 135 -158 117z"/>
</g>
</svg>
